<svg width="15" height="18" viewBox="0 0 15 18" fill="none" xmlns="http://www.w3.org/2000/svg">
<path d="M6.13536 0.212587C6.19835 0.145165 6.27362 0.0916174 6.35673 0.0551054C6.43984 0.0185933 6.52911 -0.000143713 6.61926 8.29943e-07C6.70941 0.000145373 6.79862 0.0191685 6.88162 0.0559469C6.96462 0.0927252 7.03974 0.146514 7.10253 0.214138L14.7894 8.4592C14.9244 8.60399 15 8.79819 15 9.00039C15 9.20259 14.9244 9.39679 14.7894 9.54158L7.10253 17.7866C7.03964 17.8542 6.96445 17.9078 6.88139 17.9445C6.79833 17.9811 6.70909 18 6.61894 18C6.52879 18 6.43956 17.9811 6.3565 17.9445C6.27344 17.9078 6.19825 17.8542 6.13536 17.7866C6.00598 17.6482 5.93354 17.4623 5.93354 17.2687C5.93354 17.0751 6.00598 16.8892 6.13536 16.7508L13.3639 9.00039L6.13536 1.2469C6.00642 1.1085 5.93426 0.922939 5.93426 0.729744C5.93426 0.53655 6.00642 0.350989 6.13536 0.212587V0.212587ZM0.201818 0.212587C0.264807 0.145165 0.340078 0.0916174 0.423189 0.0551054C0.506299 0.0185933 0.595564 -0.000143713 0.685715 8.29943e-07C0.775866 0.000145373 0.865076 0.0191685 0.948079 0.0559469C1.03108 0.0927252 1.1062 0.146514 1.16899 0.214138L8.85589 8.4592C8.9909 8.60399 9.06646 8.79819 9.06646 9.00039C9.06646 9.20259 8.9909 9.39679 8.85589 9.54158L1.16899 17.7866C1.1061 17.8542 1.0309 17.9078 0.947847 17.9445C0.864791 17.9811 0.775553 18 0.685402 18C0.595251 18 0.506014 17.9811 0.422957 17.9445C0.3399 17.9078 0.264708 17.8542 0.201818 17.7866C0.072434 17.6482 0 17.4623 0 17.2687C0 17.0751 0.072434 16.8892 0.201818 16.7508L7.43036 9.00039L0.201818 1.2469C0.0728779 1.1085 0.000723248 0.922939 0.000723248 0.729744C0.000723248 0.53655 0.0728779 0.350989 0.201818 0.212587V0.212587Z" fill="black" fill-opacity="0.4"/>
</svg>
