<svg width="170" height="39" viewBox="0 0 170 39" fill="none" xmlns="http://www.w3.org/2000/svg">
<path d="M87.5209 9.15946C87.5397 9.18047 87.5624 9.19727 87.5876 9.20883C87.6127 9.22039 87.6399 9.22647 87.6674 9.2267C87.695 9.22693 87.7222 9.2213 87.7476 9.21016C87.773 9.19902 87.7959 9.18261 87.815 9.16191C88.6352 8.39624 89.3799 7.54643 90.0378 6.62524C90.24 6.35363 90.6333 5.92568 90.6324 5.55033C90.6324 5.14341 90.1626 5.20777 89.9035 5.22024C89.396 5.24618 88.8892 5.30221 88.3826 5.34259C87.9513 5.40544 87.5145 5.41668 87.0808 5.37611C87.0648 5.37366 87.0527 5.37097 87.044 5.3695C87.0328 5.34504 87.0152 5.3076 87.0103 5.29438C86.9529 5.11275 86.9122 4.92577 86.8889 4.73601C86.8058 4.1977 86.7682 3.64617 86.7281 3.09954C86.6881 2.55707 86.6579 2.01215 86.6058 1.47066C86.5803 1.2015 86.5915 0.730972 86.39 0.533754C86.1734 0.322345 85.8233 0.541338 85.6036 0.661724C85.1897 0.885613 84.7931 1.15232 84.3991 1.41634C83.6239 1.93532 82.866 2.55218 82.0508 2.9909C81.9638 2.87149 81.8533 2.76285 81.7679 2.64075C81.4546 2.19616 81.1668 1.73052 80.872 1.27051C80.6462 0.879011 80.3901 0.507481 80.1064 0.159628C79.8682 -0.103655 79.5813 -0.0361226 79.4526 0.324301C79.3076 0.810537 79.216 1.31243 79.1793 1.82032C79.0986 2.48097 79.0371 3.14505 79.0083 3.80864C78.9987 4.01345 78.9653 4.78079 79.1595 4.81578C79.181 4.81994 79.2018 4.82654 79.2233 4.83095C80.7755 5.05324 82.2849 5.52813 83.6966 6.23839C85.1253 6.96999 86.4198 7.95875 87.5209 9.15946Z" fill="#FFBC15"/>
<path d="M59.6323 12.4928H56.2559L55.5678 14.0249C54.8456 13.3706 54.001 12.8659 53.0827 12.5399C52.0838 12.1874 51.0309 12.0126 49.9717 12.0235C48.5013 11.9962 47.0485 12.3462 45.7518 13.0402C44.5459 13.694 43.5489 14.6748 42.8752 15.8697C42.6177 16.3225 42.4075 16.8007 42.2481 17.2966C41.9727 18.1693 41.8361 19.0798 41.8434 19.9949C41.8239 21.3012 42.1134 22.5937 42.6881 23.767C42.7478 23.8869 42.808 24.0068 42.8746 24.1233C43.5541 25.3245 44.5632 26.3061 45.7827 26.9522C47.1017 27.6467 48.575 27.9965 50.0655 27.9689C51.8569 27.9689 53.409 27.5212 54.7218 26.6258L54.8618 26.4858C54.8314 26.1755 54.779 25.8677 54.7051 25.5647C54.9212 26.4576 54.9471 27.3859 54.7813 28.2894C54.6156 29.1929 54.2617 30.0515 53.7428 30.8095C53.2239 31.5675 52.5514 32.208 51.7691 32.6894C50.9867 33.1709 50.1119 33.4825 49.2014 33.6041C48.2909 33.7257 47.365 33.6546 46.4837 33.3954C45.6024 33.1362 44.7854 32.6947 44.0858 32.0994C43.3861 31.5042 42.8193 30.7685 42.4222 29.9402C42.0251 29.1119 41.8065 28.2093 41.7807 27.2911V18.8705C41.7796 18.4626 41.7574 18.055 41.7141 17.6494C41.5437 16.0111 41.0231 14.7105 40.1396 13.759C39.0454 12.5816 37.5081 11.9928 35.5277 11.9925C34.4906 11.9832 33.4631 12.1909 32.5111 12.6023C31.6091 12.9896 30.811 13.5841 30.1818 14.3376L29.3378 12.4928H25.9613V28.4375H30.8379V20.6833C30.8379 19.2869 31.1403 18.2187 31.745 17.4788C32.0319 17.1188 32.3991 16.8309 32.8171 16.6381C33.2352 16.4453 33.6925 16.353 34.1526 16.3686C34.5318 16.3503 34.9102 16.4182 35.2593 16.5671C35.6085 16.7161 35.9194 16.9422 36.1686 17.2286C36.6585 17.8017 36.9036 18.6615 36.9038 19.808V28.2018C36.9122 28.2807 36.9241 28.3584 36.9337 28.4367C37.3005 31.3106 38.7481 33.9368 40.9823 35.7813C43.2164 37.6258 46.0692 38.5501 48.9605 38.3661C51.8518 38.1822 54.5645 36.9039 56.5469 34.7912C58.5293 32.6785 59.6326 29.89 59.6323 26.9928C59.6323 26.8985 59.6274 26.8064 59.6254 26.7128C59.6288 26.5806 59.6323 26.4475 59.6323 26.3116V12.4928ZM53.9094 23.6605C53.7582 23.4122 53.5906 23.1742 53.4077 22.9482C52.6491 23.4769 51.7401 23.7464 50.8159 23.7167C49.6073 23.7167 48.6225 23.3624 47.8616 22.6536C47.3018 22.1479 46.9243 21.4718 46.7873 20.7299C46.7424 20.4879 46.72 20.2423 46.7202 19.9961C46.7088 19.4972 46.8048 19.0016 47.0018 18.5431C47.1987 18.0845 47.4919 17.6737 47.8616 17.3384C48.6218 16.6302 49.6066 16.2758 50.8159 16.2753C52.0252 16.2747 53.01 16.6291 53.7703 17.3384C54.131 17.6807 54.4182 18.0929 54.6145 18.5498C54.8108 19.0067 54.9121 19.4988 54.9121 19.9961C54.9121 20.4934 54.8108 20.9855 54.6145 21.4424C54.4182 21.8993 54.131 22.3115 53.7703 22.6538C53.6557 22.7595 53.5347 22.8579 53.4079 22.9484C53.5907 23.1744 53.7582 23.4123 53.9094 23.6605ZM54.6857 25.4797C54.6135 25.1983 54.5222 24.9221 54.4126 24.653C54.5221 24.9221 54.6133 25.1983 54.6857 25.4797ZM54.3586 24.5219C54.2478 24.2629 54.1205 24.0113 53.9774 23.7687C54.1205 24.0113 54.2479 24.2629 54.3586 24.5219Z" fill="#FF2957"/>
<path d="M18.741 28.452L11.6402 17.1921L18.2919 6.31917H12.184L7.13224 14.8257H5.24546V6.31836H0V28.7039H5.24465V19.6537H7.13143L12.6956 28.7037H23.7297V12.3944H18.7408L18.741 28.452Z" fill="#FF2957"/>
<path d="M88.7901 20.3906C89.9093 19.5018 91.5242 19.0574 93.6349 19.0574H97.7596V18.3987C97.7596 17.6041 97.5466 16.9976 97.1207 16.5792C96.6948 16.1608 96.0764 15.9517 95.2656 15.9518C94.634 15.9247 94.0107 16.1011 93.4908 16.4541C93.0391 16.7774 92.7348 17.2615 92.6432 17.8026H87.6227C87.9213 15.9837 88.7423 14.5618 90.0857 13.5368C91.429 12.5117 93.177 11.9995 95.3297 12C97.7177 12 99.5514 12.5855 100.831 13.7564C102.11 14.9274 102.75 16.5897 102.749 18.7434V28.4984H99.2952L98.5273 26.8359C97.1842 28.2789 95.3933 29.0003 93.1544 29C91.257 29 89.7753 28.5661 88.7095 27.6984C87.6437 26.8307 87.1108 25.6336 87.1108 24.107C87.1108 22.5187 87.6706 21.2799 88.7901 20.3906ZM92.7395 24.6564C93.0805 24.9181 93.6134 25.0488 94.3382 25.0486C95.4464 25.0486 96.2939 24.8134 96.8809 24.343C97.1654 24.1204 97.393 23.8358 97.5455 23.5118C97.6981 23.1877 97.7714 22.8332 97.7596 22.4765V22.2258H94.2419C92.8988 22.2258 92.2273 22.6857 92.2273 23.6055C92.2204 23.8081 92.2634 24.0094 92.3525 24.1923C92.4416 24.3752 92.5743 24.5344 92.7393 24.6564H92.7395Z" fill="#FF2957"/>
<path d="M110.408 28.4782C109.463 28.1475 108.598 27.6371 107.865 26.9777L107.13 28.5095H103.676V6H108.697V13.7483C110.148 12.837 111.854 12.3671 113.589 12.4003C115.094 12.3774 116.578 12.7366 117.89 13.4415C119.153 14.1308 120.185 15.1508 120.864 16.3817C121.568 17.7211 121.935 19.2 121.935 20.6998C121.935 22.1995 121.568 23.6784 120.864 25.0179C120.182 26.252 119.144 27.2725 117.874 27.9579C116.555 28.6617 115.066 29.0208 113.557 28.9991C112.483 29.0086 111.416 28.8322 110.408 28.4782ZM109.592 23.5626C110.428 24.3013 111.524 24.7114 112.662 24.7114C113.8 24.7114 114.896 24.3013 115.732 23.5626C116.511 22.7964 116.947 21.769 116.947 20.6993C116.947 19.6296 116.511 18.6022 115.732 17.8359C114.896 17.0973 113.8 16.6872 112.662 16.6872C111.524 16.6872 110.428 17.0973 109.592 17.8359C108.813 18.6022 108.376 19.6296 108.376 20.6993C108.376 21.769 108.813 22.7964 109.592 23.5626Z" fill="#FF2957"/>
<path d="M123.103 20.3906C124.222 19.5018 125.838 19.0574 127.948 19.0574H132.073V18.3987C132.073 17.6041 131.86 16.9976 131.433 16.5792C131.007 16.1608 130.389 15.9517 129.579 15.9518C128.947 15.9247 128.324 16.1011 127.804 16.4541C127.352 16.7774 127.048 17.2616 126.956 17.8026H121.936C122.234 15.9837 123.055 14.5618 124.398 13.5368C125.741 12.5117 127.489 11.9995 129.642 12C132.03 12 133.863 12.5855 135.143 13.7564C136.424 14.9274 137.063 16.5897 137.062 18.7434V28.4984H133.608L132.841 26.8359C131.498 28.2789 129.707 29.0003 127.468 29C125.57 29 124.089 28.5661 123.023 27.6984C121.957 26.8307 121.424 25.6336 121.424 24.107C121.424 22.5187 121.984 21.2799 123.103 20.3906ZM127.052 24.6564C127.393 24.9181 127.926 25.0488 128.652 25.0486C129.76 25.0486 130.607 24.8134 131.194 24.343C131.479 24.1203 131.706 23.8357 131.859 23.5117C132.011 23.1877 132.084 22.8332 132.073 22.4765V22.2258H128.555C127.212 22.2258 126.541 22.6857 126.541 23.6055C126.534 23.8081 126.577 24.0092 126.666 24.1921C126.755 24.375 126.887 24.5342 127.052 24.6564Z" fill="#FF2957"/>
<path d="M148.43 17.3981C148.175 17.1029 147.857 16.8697 147.5 16.7161C147.142 16.5625 146.755 16.4925 146.367 16.5113C145.897 16.4955 145.429 16.5907 145.002 16.7895C144.574 16.9883 144.199 17.285 143.905 17.6561C143.286 18.4193 142.977 19.5202 142.977 20.9589V28.95H137.989V12.5159H141.442L142.306 14.417C142.949 13.6405 143.766 13.0278 144.688 12.6287C145.662 12.2046 146.713 11.9905 147.774 12.0003C149.8 12.0003 151.372 12.6071 152.492 13.8207C153.611 15.0343 154.17 16.7906 154.17 19.0897V28.95H149.182V20.0576C149.182 18.8754 148.931 17.9889 148.43 17.3981Z" fill="#FF2957"/>
<path d="M156.042 20.3904C157.161 19.5016 158.776 19.0572 160.887 19.0572H165.011V18.3986C165.011 17.604 164.798 16.9975 164.372 16.5791C163.945 16.1607 163.327 15.9516 162.517 15.9517C161.886 15.9247 161.262 16.101 160.742 16.454C160.291 16.7772 159.986 17.2614 159.895 17.8024H154.874C155.172 15.9836 155.993 14.5617 157.336 13.5367C158.679 12.5117 160.427 11.9995 162.58 12C164.968 12 166.801 12.5855 168.081 13.7564C169.361 14.9273 170.001 16.5897 170 18.7436V28.4984H166.546L165.779 26.8359C164.436 28.2789 162.645 29.0003 160.406 29C158.508 29 157.027 28.5662 155.961 27.6985C154.895 26.8308 154.362 25.6337 154.362 24.1071C154.362 22.5186 154.922 21.2797 156.042 20.3904ZM159.991 24.6561C160.332 24.9178 160.865 25.0485 161.59 25.0483C162.698 25.0483 163.546 24.8131 164.133 24.3427C164.417 24.12 164.645 23.8354 164.797 23.5114C164.95 23.1874 165.023 22.833 165.011 22.4763V22.2256H161.493C160.15 22.2256 159.479 22.6855 159.479 23.6053C159.472 23.8078 159.515 24.009 159.604 24.1918C159.693 24.3747 159.825 24.5339 159.99 24.6561H159.991Z" fill="#FF2957"/>
<path d="M82.4633 19.7302C82.0831 21.1551 81.4224 22.2598 80.4812 23.0442C79.5399 23.8287 78.3484 24.2215 76.9065 24.2227C75.8559 24.2369 74.8218 23.9489 73.9172 23.39C73.0183 22.8271 72.2895 22.0104 71.8144 21.0338C71.2861 19.939 71.023 18.7252 71.0482 17.4992C71.023 16.2751 71.2807 15.0627 71.7995 13.9651C72.2664 12.9876 72.9909 12.17 73.8874 11.6089C74.8021 11.0477 75.8466 10.76 76.9069 10.777C78.132 10.7457 79.3337 11.1313 80.3312 11.8758C81.3203 12.6495 82.0551 13.7255 82.4339 14.955H87.3309C87.0647 13.2602 86.4272 11.6526 85.4683 10.2582C84.5201 8.92256 83.2786 7.84498 81.8486 7.11636C80.8432 6.62107 79.77 6.29305 78.6677 6.14415C78.0745 6.05293 77.4758 6.00518 76.8762 6.00125C74.9269 5.97129 73.0046 6.48072 71.3042 7.4779C69.6674 8.44585 68.3202 9.87076 67.4132 11.5934C66.4605 13.4005 65.9741 15.4358 66.0017 17.4992C65.9677 19.5765 66.4488 21.6276 67.3981 23.4526C68.3031 25.1748 69.6583 26.592 71.3052 27.5384C72.977 28.5119 74.8845 28.9987 77.0275 28.9987C78.7348 29.0261 80.4237 28.6278 81.9544 27.8365C83.395 27.0811 84.6338 25.9637 85.5598 24.5845C86.5216 23.1369 87.1487 21.4755 87.3917 19.7312L82.4633 19.7302Z" fill="#FF2957"/>
</svg>
