<svg width="123" height="28" viewBox="0 0 123 28" fill="none" xmlns="http://www.w3.org/2000/svg">
<path d="M63.3239 6.62713C63.3375 6.64234 63.3539 6.65449 63.3722 6.66286C63.3904 6.67122 63.4101 6.67562 63.43 6.67578C63.4499 6.67595 63.4696 6.67188 63.4879 6.66382C63.5063 6.65576 63.5229 6.64388 63.5367 6.62891C64.1302 6.07493 64.669 5.46006 65.145 4.79355C65.2913 4.59704 65.5759 4.2874 65.5752 4.01582C65.5752 3.72141 65.2352 3.76797 65.0478 3.777C64.6806 3.79576 64.314 3.83631 63.9474 3.86552C63.6353 3.91099 63.3193 3.91913 63.0055 3.88977C62.994 3.888 62.9852 3.88605 62.9789 3.88499C62.9708 3.86729 62.9581 3.8402 62.9545 3.83064C62.9129 3.69922 62.8835 3.56394 62.8667 3.42664C62.8066 3.03716 62.7793 2.63811 62.7503 2.24261C62.7214 1.85011 62.6996 1.45585 62.6618 1.06406C62.6434 0.869323 62.6515 0.528879 62.5057 0.386187C62.349 0.233226 62.0957 0.391674 61.9367 0.478777C61.6372 0.640767 61.3503 0.833738 61.0652 1.02476C60.5043 1.40026 59.956 1.84657 59.3662 2.164C59.3032 2.07761 59.2233 1.999 59.1615 1.91066C58.9348 1.58898 58.7266 1.25208 58.5133 0.919247C58.3499 0.63599 58.1646 0.367178 57.9593 0.115495C57.787 -0.0749977 57.5794 -0.0261358 57.4863 0.234641C57.3814 0.586447 57.3151 0.94958 57.2886 1.31705C57.2302 1.79506 57.1856 2.27554 57.1648 2.75566C57.1579 2.90385 57.1337 3.45904 57.2742 3.48435C57.2898 3.48736 57.3048 3.49214 57.3204 3.49533C58.4434 3.65617 59.5355 3.99976 60.557 4.51365C61.5907 5.04299 62.5273 5.75839 63.3239 6.62713V6.62713Z" fill="#FFBC15"/>
<path d="M43.1456 9.03944H40.7027L40.2048 10.148C39.6823 9.67459 39.0712 9.30939 38.4068 9.0735C37.6841 8.81848 36.9223 8.69204 36.1559 8.69992C35.0921 8.68014 34.0409 8.93339 33.1027 9.43548C32.2302 9.90858 31.5088 10.6182 31.0214 11.4828C30.8351 11.8104 30.683 12.1563 30.5677 12.5151C30.3684 13.1465 30.2695 13.8053 30.2748 14.4674C30.2608 15.4126 30.4702 16.3478 30.886 17.1967C30.9292 17.2834 30.9728 17.3702 31.0209 17.4544C31.5126 18.3235 32.2427 19.0338 33.125 19.5013C34.0794 20.0038 35.1454 20.2568 36.2238 20.2368C37.5199 20.2368 38.6429 19.9129 39.5927 19.2651L39.694 19.1638C39.672 18.9393 39.6341 18.7166 39.5807 18.4974C39.737 19.1434 39.7558 19.815 39.6358 20.4688C39.5159 21.1225 39.2599 21.7437 38.8844 22.2921C38.509 22.8406 38.0224 23.304 37.4564 23.6523C36.8903 24.0006 36.2574 24.2261 35.5986 24.3141C34.9398 24.4021 34.2699 24.3506 33.6322 24.1631C32.9946 23.9755 32.4035 23.6561 31.8973 23.2254C31.391 22.7947 30.981 22.2625 30.6936 21.6632C30.4063 21.0638 30.2482 20.4108 30.2295 19.7464V13.6539C30.2287 13.3588 30.2126 13.0639 30.1813 12.7704C30.058 11.5851 29.6813 10.644 29.0421 9.95556C28.2504 9.10369 27.1381 8.67766 25.7053 8.67746C24.9549 8.67074 24.2115 8.82104 23.5226 9.11871C22.87 9.39892 22.2926 9.82905 21.8374 10.3742L21.2267 9.03944H18.7837V20.5759H22.3121V14.9655C22.3121 13.9552 22.5308 13.1823 22.9684 12.6469C23.176 12.3865 23.4416 12.1782 23.7441 12.0387C24.0465 11.8992 24.3774 11.8325 24.7103 11.8437C24.9847 11.8305 25.2585 11.8796 25.5111 11.9873C25.7637 12.0951 25.9887 12.2588 26.169 12.466C26.5234 12.8806 26.7007 13.5027 26.7009 14.3322V20.4054C26.707 20.4625 26.7156 20.5187 26.7225 20.5753C26.9879 22.6546 28.0353 24.5548 29.6518 25.8894C31.2683 27.2239 33.3323 27.8926 35.4243 27.7596C37.5162 27.6265 39.479 26.7016 40.9133 25.173C42.3476 23.6444 43.1458 21.6268 43.1456 19.5306C43.1456 19.4624 43.1421 19.3957 43.1406 19.3281C43.1431 19.2324 43.1456 19.1361 43.1456 19.0377V9.03944ZM39.005 17.1196C38.8955 16.94 38.7743 16.7678 38.642 16.6042C38.0931 16.9868 37.4354 17.1818 36.7667 17.1603C35.8923 17.1603 35.1797 16.9039 34.6292 16.3911C34.2242 16.0252 33.951 15.536 33.8519 14.9992C33.8194 14.8241 33.8032 14.6464 33.8033 14.4683C33.7951 14.1073 33.8646 13.7488 34.0071 13.417C34.1496 13.0852 34.3617 12.788 34.6292 12.5454C35.1792 12.033 35.8918 11.7766 36.7667 11.7762C37.6417 11.7758 38.3542 12.0322 38.9043 12.5454C39.1653 12.793 39.3731 13.0913 39.5151 13.4219C39.6572 13.7525 39.7304 14.1085 39.7304 14.4683C39.7304 14.8281 39.6572 15.1842 39.5151 15.5148C39.3731 15.8453 39.1653 16.1436 38.9043 16.3913C38.8214 16.4677 38.7339 16.5389 38.6421 16.6044C38.7744 16.7679 38.8956 16.94 39.005 17.1196ZM39.5666 18.4359C39.5144 18.2322 39.4483 18.0324 39.369 17.8377C39.4483 18.0324 39.5143 18.2323 39.5666 18.4359V18.4359ZM39.33 17.7429C39.2498 17.5555 39.1577 17.3734 39.0541 17.1979C39.1577 17.3734 39.2498 17.5555 39.33 17.7429V17.7429Z" fill="#FF2957"/>
<path d="M13.5597 20.5861L8.42205 12.4393L13.2347 4.57236H8.81545L5.16039 10.7271H3.79524V4.57178H0V20.7684H3.79466V14.2203H5.1598L9.18565 20.7682H17.1691V8.96798H13.5595L13.5597 20.5861Z" fill="#FF2957"/>
<path d="M64.2422 14.7534C65.052 14.1104 66.2204 13.7888 67.7475 13.7888H70.7319V13.3123C70.7319 12.7374 70.5778 12.2985 70.2697 11.9958C69.9615 11.6931 69.5141 11.5418 68.9274 11.5419C68.4704 11.5223 68.0194 11.6499 67.6433 11.9053C67.3165 12.1392 67.0963 12.4895 67.03 12.8809H63.3976C63.6136 11.565 64.2077 10.5361 65.1796 9.7945C66.1515 9.05286 67.4163 8.68223 68.9738 8.68262C70.7016 8.68262 72.0284 9.10623 72.954 9.95345C73.8797 10.8007 74.3423 12.0034 74.3419 13.5616V20.6197H71.843L71.2874 19.4168C70.3156 20.4609 69.0198 20.9828 67.3999 20.9826C66.0271 20.9826 64.9551 20.6687 64.1839 20.0409C63.4128 19.4131 63.0272 18.5469 63.0272 17.4424C63.0272 16.2932 63.4322 15.3969 64.2422 14.7534ZM67.0998 17.8399C67.3465 18.0292 67.732 18.1238 68.2565 18.1236C69.0582 18.1236 69.6715 17.9535 70.0962 17.6131C70.302 17.4521 70.4666 17.2462 70.577 17.0117C70.6874 16.7773 70.7404 16.5208 70.7319 16.2627V16.0813H68.1867C67.215 16.0813 66.7291 16.414 66.7291 17.0796C66.7242 17.2262 66.7552 17.3718 66.8197 17.5041C66.8842 17.6364 66.9802 17.7516 67.0996 17.8399H67.0998Z" fill="#FF2957"/>
<path d="M79.8831 20.6049C79.1996 20.3657 78.5738 19.9964 78.0434 19.5193L77.5114 20.6276H75.0125V4.34131H78.6452V9.94742C79.6956 9.28808 80.9295 8.94812 82.1852 8.97211C83.2738 8.95551 84.3475 9.21545 85.2971 9.72545C86.2109 10.2242 86.9572 10.9622 87.4485 11.8528C87.9581 12.8219 88.2236 13.8919 88.2236 14.977C88.2236 16.0621 87.9581 17.1322 87.4485 18.1013C86.9552 18.9942 86.2044 19.7326 85.2854 20.2285C84.3312 20.7377 83.2538 20.9975 82.1615 20.9818C81.3845 20.9887 80.6126 20.861 79.8831 20.6049V20.6049ZM79.293 17.0484C79.8981 17.5828 80.6911 17.8795 81.5142 17.8795C82.3373 17.8795 83.1303 17.5828 83.7354 17.0484C84.2993 16.494 84.6148 15.7506 84.6148 14.9767C84.6148 14.2027 84.2993 13.4594 83.7354 12.905C83.1303 12.3705 82.3373 12.0738 81.5142 12.0738C80.6911 12.0738 79.8981 12.3705 79.293 12.905C78.7291 13.4594 78.4136 14.2027 78.4136 14.9767C78.4136 15.7506 78.7291 16.494 79.293 17.0484V17.0484Z" fill="#FF2957"/>
<path d="M89.0682 14.7534C89.8785 14.1104 91.0472 13.7888 92.5742 13.7888H95.5585V13.3123C95.5585 12.7374 95.4043 12.2985 95.0957 11.9958C94.7872 11.6931 94.3399 11.5418 93.7539 11.5419C93.2969 11.5223 92.8459 11.6499 92.4698 11.9053C92.143 12.1392 91.9229 12.4895 91.8567 12.8809H88.2239C88.44 11.565 89.0338 10.5361 90.0053 9.7945C90.9769 9.05286 92.2418 8.68223 93.8 8.68262C95.5273 8.68262 96.8541 9.10623 97.7802 9.95345C98.7063 10.8007 99.169 12.0034 99.1681 13.5616V20.6197H96.6692L96.1141 19.4168C95.1424 20.4609 93.8466 20.9828 92.2267 20.9826C90.8538 20.9826 89.7818 20.6687 89.0107 20.0409C88.2396 19.4131 87.854 18.5469 87.854 17.4424C87.8539 16.2932 88.2587 15.3969 89.0682 14.7534ZM91.9258 17.8399C92.1725 18.0292 92.5583 18.1238 93.0831 18.1236C93.8849 18.1236 94.4981 17.9535 94.9228 17.6131C95.1285 17.452 95.2931 17.2461 95.4035 17.0116C95.5139 16.7772 95.567 16.5208 95.5585 16.2627V16.0813H93.0134C92.0416 16.0813 91.5557 16.414 91.5557 17.0796C91.5508 17.2261 91.5819 17.3717 91.6463 17.504C91.7107 17.6363 91.8065 17.7515 91.9258 17.8399Z" fill="#FF2957"/>
<path d="M107.393 12.5883C107.209 12.3747 106.979 12.206 106.72 12.0949C106.462 11.9837 106.182 11.9331 105.901 11.9467C105.561 11.9352 105.222 12.0042 104.913 12.148C104.604 12.2918 104.332 12.5065 104.12 12.775C103.672 13.3271 103.448 14.1237 103.448 15.1647V20.9464H99.8391V9.05587H102.338L102.962 10.4314C103.428 9.86957 104.019 9.42629 104.686 9.13751C105.391 8.83062 106.151 8.67574 106.919 8.68285C108.385 8.68285 109.522 9.12188 110.332 9.99995C111.142 10.878 111.547 12.1488 111.546 13.8122V20.9464H107.937V14.5125C107.937 13.6572 107.756 13.0157 107.393 12.5883Z" fill="#FF2957"/>
<path d="M112.901 14.7533C113.711 14.1102 114.879 13.7887 116.406 13.7887H119.391V13.3122C119.391 12.7373 119.236 12.2985 118.928 11.9957C118.619 11.693 118.172 11.5417 117.586 11.5418C117.129 11.5222 116.678 11.6498 116.302 11.9052C115.975 12.1391 115.755 12.4894 115.688 12.8808H112.055C112.272 11.5649 112.865 10.5361 113.837 9.79448C114.808 9.05285 116.073 8.68223 117.632 8.68262C119.359 8.68262 120.686 9.10622 121.612 9.95342C122.538 10.8006 123.001 12.0034 123 13.5618V20.6197H120.501L119.946 19.4168C118.974 20.4609 117.678 20.9828 116.058 20.9826C114.685 20.9826 113.613 20.6687 112.842 20.0409C112.071 19.4131 111.686 18.547 111.686 17.4425C111.685 16.2931 112.091 15.3967 112.901 14.7533ZM115.758 17.8397C116.004 18.029 116.39 18.1236 116.915 18.1234C117.717 18.1234 118.33 17.9533 118.755 17.6129C118.961 17.4518 119.125 17.2459 119.235 17.0114C119.346 16.777 119.399 16.5206 119.391 16.2625V16.0811H116.845C115.873 16.0811 115.387 16.4139 115.387 17.0794C115.382 17.2259 115.413 17.3715 115.478 17.5038C115.542 17.6361 115.638 17.7513 115.757 17.8397H115.758Z" fill="#FF2957"/>
<path d="M59.6646 14.2755C59.3895 15.3065 58.9115 16.1057 58.2305 16.6733C57.5495 17.2409 56.6873 17.5251 55.6441 17.526C54.884 17.5363 54.1358 17.3278 53.4812 16.9235C52.8309 16.5162 52.3035 15.9253 51.9598 15.2187C51.5776 14.4266 51.3873 13.5484 51.4055 12.6613C51.3872 11.7756 51.5737 10.8984 51.9491 10.1043C52.2869 9.39702 52.811 8.80552 53.4597 8.39951C54.1215 7.99349 54.8772 7.78529 55.6444 7.79761C56.5308 7.77499 57.4002 8.05398 58.122 8.5926C58.8376 9.15243 59.3693 9.93096 59.6434 10.8205H63.1864C62.9939 9.59424 62.5326 8.43115 61.8388 7.42225C61.1528 6.45587 60.2545 5.67621 59.2199 5.14903C58.4924 4.79067 57.7159 4.55334 56.9184 4.44561C56.4892 4.3796 56.056 4.34505 55.6222 4.34221C54.2118 4.32054 52.821 4.68912 51.5907 5.41061C50.4064 6.11096 49.4316 7.14191 48.7754 8.38826C48.0861 9.69578 47.7342 11.1684 47.7541 12.6613C47.7295 14.1643 48.0776 15.6483 48.7645 16.9688C49.4193 18.2148 50.3998 19.2402 51.5914 19.9249C52.801 20.6293 54.1811 20.9815 55.7317 20.9815C56.9669 21.0014 58.1889 20.7131 59.2964 20.1407C60.3387 19.5941 61.235 18.7856 61.905 17.7877C62.6009 16.7404 63.0547 15.5383 63.2304 14.2762L59.6646 14.2755Z" fill="#FF2957"/>
</svg>
